<svg width="96" height="96" viewBox="0 0 96 96" fill="none" xmlns="http://www.w3.org/2000/svg">
<g clip-path="url(#clip0_59_24)">
<path d="M47.52 36.56C52.64 36.8 53.96 41.16 54.04 43.2H61.2C60.88 35.28 55.24 30.44 47.4 30.44C38.56 30.44 32 36 32 48.56C32 56.32 35.72 65.52 47.36 65.52C56.24 65.52 61 58.92 61.12 53.72H53.96C53.84 56.08 52.16 59.24 47.44 59.48C42.2 59.32 40 55.24 40 48.56C40 37 45.12 36.64 47.52 36.56ZM48 8C25.92 8 8 25.92 8 48C8 70.08 25.92 88 48 88C70.08 88 88 70.08 88 48C88 25.92 70.08 8 48 8ZM48 80C30.36 80 16 65.64 16 48C16 30.36 30.36 16 48 16C65.64 16 80 30.36 80 48C80 65.64 65.64 80 48 80Z" fill="white"/>
</g>
<defs>
<clipPath id="clip0_59_24">
<rect width="96" height="96" fill="white"/>
</clipPath>
</defs>
</svg>
