<svg width="96" height="96" viewBox="0 0 96 96" fill="none" xmlns="http://www.w3.org/2000/svg">
<path d="M48 8C25.9063 8 8 25.9063 8 48C8 70.0938 25.9063 88 48 88C70.0938 88 88 70.0938 88 48C88 25.9063 70.0938 8 48 8ZM48 16C65.6406 16 80 30.3594 80 48C80 49.875 79.8125 51.7188 79.5 53.5C78.5156 53.2813 77.0625 53.0156 75.375 53C74.125 52.9844 72.5625 53.1875 71.25 53.375C71.7031 51.9844 72 50.4531 72 48.875C72 45.0312 70.125 41.4531 67.125 38.5C67.9531 35.4219 68.7656 30.1406 66.625 28C60.2969 28 56.7969 32.5156 56.625 32.75C54.6719 32.2813 52.6562 32 50.5 32C47.7344 32 45.0938 32.5 42.625 33.25L43.375 32.625C43.375 32.625 39.8594 27.75 33.375 27.75C31.1094 30.0313 32.1406 35.8125 33 38.75C29.9375 41.6719 28 45.125 28 48.875C28 50.1875 28.3125 51.4375 28.625 52.625C27.5156 52.5 23.5156 52.125 21.875 52.125C20.4219 52.125 18.1719 52.4688 16.375 52.875C16.125 51.2813 16 49.6563 16 48C16 30.3594 30.3594 16 48 16ZM21.875 53.125C23.4531 53.125 28.25 53.6875 28.875 53.75C28.9531 53.9688 29.0313 54.1719 29.125 54.375C27.4063 54.2188 24.0781 53.9844 21.875 54.25C20.4063 54.4219 18.5313 54.9531 16.875 55.375C16.75 54.875 16.5938 54.3906 16.5 53.875C18.25 53.5 20.5469 53.125 21.875 53.125ZM75.375 54C76.9688 54.0156 78.4219 54.2813 79.375 54.5C79.3281 54.7656 79.1875 54.9844 79.125 55.25C78.1094 55.0156 76.4375 54.6719 74.5 54.625C73.5625 54.6094 72.0625 54.6563 70.75 54.75C70.8125 54.625 70.8281 54.5 70.875 54.375C72.2344 54.1875 73.9688 53.9844 75.375 54ZM24.375 55.125C26.625 55.1406 28.7344 55.2969 29.625 55.375C31.7188 59.2812 35.9531 62.1719 42.5 63.375C40.8906 64.2656 39.4531 65.5156 38.375 67C37.4375 67.0781 36.4531 67.125 35.5 67.125C32.7188 67.125 30.9844 64.6406 29.5 62.5C28 60.3594 26.1563 60.125 25.125 60C24.0781 59.875 23.7188 60.4688 24.25 60.875C27.2969 63.2188 28.3906 66 29.625 68.5C30.7344 70.75 33.0625 72 35.625 72H36.125C36.0469 72.4375 36 72.8438 36 73.25V77.625C26.7656 73.8906 19.7344 66 17.125 56.25C18.7656 55.8438 20.6094 55.4219 22 55.25C22.6406 55.1719 23.4531 55.1094 24.375 55.125ZM74.5 55.625C76.2969 55.6719 77.8906 56.0156 78.875 56.25C76.6719 64.5312 71.2344 71.4219 64 75.625V73.25C64 69.8438 61.3125 65.4688 57.5 63.375C63.8281 62.2188 67.9531 59.4531 70.125 55.75C71.6406 55.6406 73.4219 55.5938 74.5 55.625ZM50 72C51.0938 72 52 72.9062 52 74V79.75C50.6875 79.9219 49.3594 80 48 80V74C48 72.9062 48.9063 72 50 72ZM42 76C43.0938 76 44 76.9062 44 78V79.75C42.6563 79.5781 41.2969 79.3281 40 79V78C40 76.9062 40.9063 76 42 76ZM58 76C58.9688 76 59.8125 76.7031 60 77.625C58.7031 78.1562 57.375 78.6406 56 79V78C56 76.9062 56.9063 76 58 76Z" fill="white"/>
</svg>
