<svg width="96" height="96" viewBox="0 0 96 96" fill="none" xmlns="http://www.w3.org/2000/svg">
<path d="M76 12H20C15.58 12 12 15.58 12 20V76C12 80.42 15.58 84 20 84H76C80.42 84 84 80.42 84 76V20C84 15.58 80.42 12 76 12ZM36 68H25.908V40H36V68ZM30.776 34.868C27.692 34.868 25.632 32.812 25.632 30.068C25.632 27.324 27.688 25.268 31.116 25.268C34.2 25.268 36.26 27.324 36.26 30.068C36.26 32.812 34.204 34.868 30.776 34.868ZM72 68H62.232V52.696C62.232 48.464 59.628 47.488 58.652 47.488C57.676 47.488 54.42 48.14 54.42 52.696C54.42 53.348 54.42 68 54.42 68H44.328V40H54.42V43.908C55.72 41.628 58.324 40 63.208 40C68.092 40 72 43.908 72 52.696V68Z" fill="white"/>
</svg>
